<?xml version="1.0" standalone="no"?>
<!DOCTYPE svg PUBLIC "-//W3C//DTD SVG 20010904//EN"
 "http://www.w3.org/TR/2001/REC-SVG-20010904/DTD/svg10.dtd">
<svg version="1.0" xmlns="http://www.w3.org/2000/svg"
 width="960.000000pt" height="960.000000pt" viewBox="0 0 960.000000 960.000000"
 preserveAspectRatio="xMidYMid meet">

<g transform="translate(0.000000,960.000000) scale(0.100000,-0.100000)"
fill="#000000" stroke="none">
<path d="M0 4800 l0 -4800 633 0 632 0 39 88 c101 226 156 330 178 340 5 2 6
7 4 11 -3 4 20 39 50 77 30 38 67 86 82 107 89 124 343 389 358 375 3 -4 -16
-34 -42 -68 -313 -397 -385 -499 -544 -770 -25 -43 -70 -142 -70 -155 0 -3
336 -5 747 -5 469 1 742 4 733 10 -13 8 -12 10 2 10 9 0 19 -4 23 -9 3 -6 203
-10 507 -11 l501 -1 -28 38 c-70 94 -189 244 -198 250 -5 3 -1 -7 9 -23 9 -16
-48 35 -127 112 -79 78 -202 192 -274 254 -124 108 -265 238 -265 246 0 2 17
-6 37 -18 l37 -22 -32 46 c-17 25 -62 72 -99 104 -171 147 -372 350 -490 494
-110 134 -112 136 -93 125 13 -8 25 -18 72 -57 11 -9 17 -22 13 -27 -3 -6 -1
-11 5 -11 14 0 55 -36 160 -140 92 -91 166 -160 285 -264 50 -44 106 -94 125
-110 19 -17 28 -23 21 -13 -8 9 -11 20 -8 23 7 7 233 -210 402 -385 120 -124
318 -370 421 -524 l66 -97 2864 0 2864 0 0 4800 0 4800 -641 -2 -642 -3 -34
-95 -35 -95 -3 -282 c-4 -278 -4 -282 -30 -348 -62 -154 -184 -341 -294 -452
-86 -86 -411 -343 -435 -343 -3 0 -1 12 3 28 5 15 4 38 0 50 -6 16 -3 35 8 60
9 20 17 44 17 52 1 8 6 29 12 45 28 74 31 114 18 240 -8 70 -18 133 -24 140
-5 6 -9 25 -8 41 1 24 37 65 193 219 114 113 220 229 262 285 104 141 173 242
173 252 0 6 -22 -13 -48 -41 -27 -28 -52 -51 -55 -51 -15 0 -5 25 28 70 19 26
35 50 35 54 0 3 19 36 43 73 24 38 46 76 50 86 6 16 -63 17 -1356 17 l-1363 0
2 -136 c1 -75 1 -134 -1 -132 -5 5 -25 138 -32 211 l-5 57 -1463 0 -1463 0
-26 -32 c-146 -182 -370 -553 -412 -682 -18 -55 -34 -95 -66 -166 -23 -49 -23
-49 -38 -164 -6 -44 -22 -121 -35 -171 -28 -109 -48 -269 -43 -345 l4 -55 2
65 c5 169 76 497 149 690 73 193 197 398 313 519 31 32 34 33 47 16 15 -22 18
-141 3 -150 -5 -3 -8 -41 -7 -85 2 -44 0 -80 -5 -80 -4 0 -7 -19 -7 -42 1 -24
3 -35 6 -25 2 9 11 17 18 17 7 0 22 10 32 23 10 12 30 30 45 39 l27 18 -19
-43 c-27 -61 -69 -135 -106 -187 -18 -25 -73 -110 -124 -190 -149 -236 -222
-405 -283 -650 -65 -258 -67 -401 -12 -755 8 -49 19 -126 25 -170 11 -76 48
-226 72 -290 10 -27 78 -175 100 -217 5 -10 6 -18 3 -18 -9 0 -101 200 -138
300 -80 217 -133 439 -169 705 -18 138 -18 742 1 885 52 405 184 735 429 1069
59 80 61 95 19 144 l-24 27 -1147 0 -1146 0 0 -4800z m5639 4680 c4 0 14 -19
21 -42 16 -55 86 -174 114 -193 11 -8 36 -15 56 -15 27 0 36 -4 36 -17 1 -10
5 -27 9 -37 6 -13 -2 -9 -25 12 -49 48 -70 40 -25 -9 20 -22 34 -47 31 -55 -3
-8 0 -13 7 -11 7 1 11 -9 10 -28 0 -16 1 -24 4 -17 6 15 27 -11 62 -78 14 -25
27 -47 31 -50 3 -3 16 -25 27 -50 12 -25 35 -54 52 -65 39 -25 39 -31 1 -38
-69 -14 -92 -95 -50 -177 22 -44 25 -54 10 -45 -5 3 -16 -9 -24 -27 -8 -18
-31 -51 -50 -73 l-34 -39 -21 24 c-11 14 -21 32 -21 40 -1 18 -25 52 -32 45
-4 -5 -17 17 -94 160 -50 94 -97 210 -113 280 -15 68 -31 386 -20 405 7 13 8
13 9 -1 0 -12 9 -16 30 -15 17 0 30 2 30 4 0 1 -9 20 -19 40 -11 21 -21 53
-24 72 -2 19 -2 27 0 18 2 -10 8 -18 12 -18z m-2529 -446 c146 -163 496 -481
834 -758 660 -539 1035 -1071 1036 -1473 0 -58 -5 -81 -25 -119 -29 -54 -39
-67 -30 -39 10 32 -3 14 -101 -135 -31 -47 -47 -76 -35 -66 45 41 12 -15 -73
-123 -7 -9 -1 -8 17 4 15 9 32 25 38 34 8 12 8 10 3 -9 -4 -14 -19 -41 -34
-60 -42 -54 -48 -71 -59 -158 -6 -45 -17 -95 -26 -112 -12 -24 -13 -35 -4 -52
21 -39 39 -151 42 -253 2 -90 0 -104 -22 -142 -14 -24 -29 -43 -35 -43 -5 0
-7 -2 -4 -5 3 -3 -9 -20 -26 -39 -17 -18 -47 -52 -66 -76 -31 -38 -50 -57
-109 -110 -57 -52 -142 -115 -215 -160 -46 -28 -94 -62 -107 -76 -12 -13 -27
-24 -31 -24 -5 0 -24 -11 -42 -25 -18 -14 -38 -25 -44 -25 -6 0 -18 -7 -27
-16 -15 -15 -17 -15 -30 2 -24 31 -29 64 -13 98 21 43 35 114 48 228 14 133
14 138 -10 138 -15 0 -20 7 -20 25 0 14 -7 28 -15 31 -19 8 -9 57 20 105 23
35 97 103 184 169 90 68 198 163 365 323 92 89 171 164 175 167 3 3 12 13 20
23 12 15 12 17 -1 12 -8 -3 -21 1 -28 10 -7 8 -8 15 -3 15 4 0 17 16 27 35 11
19 23 35 28 35 5 0 7 4 4 9 -3 4 8 26 24 47 16 21 30 43 30 48 0 6 15 42 34
80 19 39 40 84 45 99 21 54 41 172 42 247 1 73 -23 216 -42 249 -9 16 -61 132
-63 141 -10 38 -41 98 -49 93 -5 -3 -7 -2 -4 4 3 5 -5 21 -19 36 -13 14 -24
31 -24 37 0 6 -5 8 -12 4 -6 -4 -8 -3 -5 3 4 5 -2 19 -11 29 -10 10 -19 24
-20 29 -1 6 -18 26 -37 46 -19 20 -35 41 -35 48 0 6 -5 11 -10 11 -6 0 -15 11
-22 25 -6 13 -15 22 -21 18 -6 -3 -7 -1 -3 5 4 7 -16 35 -47 67 -29 30 -52 55
-50 55 7 0 -151 152 -222 215 -37 33 -88 79 -113 103 -25 24 -59 52 -76 64
-17 12 -67 53 -112 92 -45 39 -94 80 -109 91 -32 23 -60 46 -113 92 -20 17
-39 30 -43 27 -4 -2 -19 12 -34 31 -14 20 -30 33 -34 31 -4 -3 -22 11 -40 30
-18 19 -38 31 -43 28 -6 -4 -8 -3 -5 3 6 9 -75 93 -91 93 -4 0 -29 20 -54 45
-29 28 -44 37 -41 26 3 -10 20 -34 39 -52 19 -18 34 -37 34 -41 0 -5 15 -24
33 -42 17 -19 50 -60 72 -91 22 -30 45 -61 50 -68 6 -7 11 -21 12 -32 1 -11 6
-40 11 -65 5 -25 12 -66 16 -92 7 -59 -2 -61 -80 -18 -95 52 -166 106 -261
198 -51 50 -116 110 -145 134 -29 23 -79 68 -111 97 -32 30 -64 56 -71 57 -14
2 -106 94 -106 105 0 13 221 249 233 249 7 0 50 -43 97 -96z m3093 -233 c-4
-7 -34 21 -45 43 -7 14 -2 11 18 -9 16 -16 28 -32 27 -34z m-3525 -61 l-52
-72 29 -24 c34 -27 313 -193 510 -304 181 -102 446 -233 535 -265 96 -34 192
-81 235 -116 11 -9 33 -19 49 -23 20 -5 26 -10 19 -17 -7 -7 -25 -7 -54 1 -93
25 -392 150 -358 150 2 0 42 -16 88 -35 45 -19 92 -35 104 -35 12 0 -28 20
-89 44 -61 25 -135 56 -163 71 -35 17 -57 23 -67 17 -11 -6 -38 4 -92 34 -41
24 -80 40 -86 37 -7 -4 -7 -2 0 6 9 10 24 5 68 -19 31 -18 59 -30 62 -27 3 2
-27 21 -67 42 -39 20 -68 32 -65 26 10 -16 -15 -13 -44 5 l-25 15 30 -6 c16
-4 28 -4 25 -2 -3 3 -90 53 -195 112 -104 59 -205 116 -222 127 -18 11 -33 15
-33 10 0 -6 19 -19 43 -31 23 -12 36 -21 29 -21 -14 0 -102 49 -102 57 0 2 5
1 11 -3 7 -4 10 -2 7 6 -4 13 -88 66 -88 56 0 -3 14 -12 30 -21 17 -9 30 -21
30 -28 0 -8 -3 -9 -8 -1 -4 6 -21 19 -39 29 -18 10 -30 22 -27 26 2 5 -6 13
-18 20 -22 12 -22 11 -8 -6 14 -17 14 -18 -8 -6 -12 7 -20 16 -17 21 6 9 -25
30 -44 30 -18 0 -112 -150 -168 -267 -58 -121 -116 -288 -127 -366 -4 -26 -11
-45 -15 -42 -8 5 24 144 56 240 22 68 119 269 158 330 18 28 49 77 70 110 49
79 137 196 142 191 2 -2 -20 -36 -49 -76z m5550 -82 c-48 -87 -90 -147 -172
-248 -74 -91 -241 -260 -316 -319 l-55 -43 45 43 c25 23 76 72 114 108 140
132 319 358 398 500 9 17 19 31 22 31 3 0 -13 -33 -36 -72z m-988 34 c0 -26
-45 -30 -278 -24 -133 3 -240 7 -238 10 15 14 516 28 516 14z m-155 -140 c-29
-24 -85 -62 -85 -58 0 7 80 66 89 66 3 0 1 -4 -4 -8z m-571 -107 c26 -30 45
-55 43 -55 -2 0 -27 25 -56 55 -29 30 -49 55 -44 55 5 0 31 -25 57 -55z
m-3574 -24 l24 -19 -36 11 c-20 6 -34 15 -32 19 8 12 16 9 44 -11z m64 -36
c11 -8 15 -15 10 -15 -6 0 -19 7 -30 15 -10 8 -14 14 -9 14 6 0 19 -6 29 -14z
m86 -50 c8 -7 41 -26 72 -42 32 -17 55 -33 52 -36 -3 -3 -31 10 -62 29 -32 19
-62 34 -68 34 -7 0 -14 7 -18 15 -3 8 -11 14 -17 13 -6 -2 -14 3 -16 10 -4 11
-1 12 18 2 13 -7 31 -18 39 -25z m3555 -23 c-3 -3 -11 0 -18 7 -9 10 -8 11 6
5 10 -3 15 -9 12 -12z m-3129 -210 c-7 -7 -46 9 -46 18 0 5 11 4 25 -2 14 -6
23 -13 21 -16z m48 -17 c11 -8 15 -15 10 -15 -6 0 -19 7 -30 15 -10 8 -14 14
-9 14 6 0 19 -6 29 -14z m-914 -277 c19 -6 29 -13 22 -15 -7 -3 -33 2 -59 11
-25 9 -48 14 -50 12 -9 -8 98 -38 114 -31 20 7 133 -25 133 -38 0 -5 7 -6 15
-3 14 5 62 -7 385 -95 90 -24 360 -86 632 -144 43 -9 80 -20 83 -25 3 -5 -9
-5 -27 1 -18 5 -44 9 -58 8 -21 -1 -19 -3 10 -10 19 -5 62 -13 95 -18 110 -17
241 -40 301 -55 32 -8 71 -17 87 -20 15 -4 27 -11 27 -17 0 -12 -62 -6 -175
18 -86 18 -277 53 -289 53 -33 0 25 -14 198 -49 109 -23 205 -45 214 -51 32
-18 -49 -11 -173 15 -66 14 -156 32 -200 40 -205 38 -384 72 -414 79 -239 54
-598 143 -756 188 -180 50 -431 145 -464 175 l-26 24 25 -6 c21 -5 22 -4 7 5
-9 6 -15 15 -12 20 3 5 1 11 -5 15 -6 4 -5 11 3 19 10 11 39 4 167 -41 85 -30
171 -60 190 -65z m-351 -105 c3 -225 38 -365 137 -549 l44 -80 177 -32 c98
-17 224 -39 281 -47 220 -33 946 -128 1252 -164 239 -28 250 -30 135 -25 -122
6 -191 14 -505 56 -135 17 -279 32 -320 32 -50 0 -67 2 -50 8 21 6 18 7 -12 5
-20 -2 -35 0 -32 4 2 3 -38 10 -89 14 -50 4 -130 13 -177 21 -47 8 -132 21
-190 29 -58 8 -141 22 -184 30 -44 9 -91 14 -105 10 -20 -4 -22 -3 -11 5 12 7
7 10 -20 12 -76 5 -150 3 -150 -4 0 -5 5 -8 12 -8 6 0 9 -2 6 -5 -2 -3 -19 0
-36 6 -27 9 -37 8 -67 -11 -37 -23 -41 -21 -26 8 5 9 12 25 15 35 3 9 15 17
26 17 20 0 20 1 5 30 -9 18 -21 28 -27 24 -6 -4 -8 -3 -4 4 3 6 -5 39 -18 74
-29 74 -62 225 -71 323 -9 109 -13 295 -5 295 4 0 8 -53 9 -117z m1695 -108
c58 -63 106 -120 106 -127 0 -11 -20 5 -91 72 -52 50 -139 152 -139 162 0 21
26 -1 124 -107z m3615 -190 c83 -103 85 -105 78 -105 -3 0 -34 35 -69 78 -80
98 -99 121 -118 141 -9 9 -44 48 -79 86 -41 44 -30 35 30 -25 52 -52 123 -131
158 -175z m-1711 181 c-7 -8 -15 -12 -17 -11 -5 6 10 25 20 25 5 0 4 -6 -3
-14z m-40 -46 c-1 -5 -64 -80 -138 -166 -162 -188 -179 -214 -180 -276 0 -26
-4 -49 -9 -52 -5 -3 -11 -15 -14 -26 -4 -16 -2 -18 13 -10 28 15 43 12 36 -6
-6 -15 12 -355 19 -362 2 -2 12 1 23 7 16 8 21 7 26 -5 3 -8 2 -13 -3 -10 -5
3 -11 -7 -14 -23 -3 -16 -13 -36 -22 -45 -9 -9 -14 -16 -10 -16 3 0 -28 -49
-70 -109 -51 -74 -85 -136 -105 -192 -30 -84 -90 -186 -115 -196 -8 -3 -15
-12 -15 -21 0 -8 -3 -13 -6 -9 -4 3 6 40 21 82 30 82 30 102 -5 293 -11 65 1
152 40 279 11 37 23 77 27 88 6 20 5 20 -16 1 -12 -11 -31 -35 -43 -55 -13
-20 -24 -29 -26 -22 -4 11 -6 11 -14 0 -25 -37 10 49 72 176 89 180 203 353
321 485 135 151 221 229 207 190z m1681 -247 c9 -10 44 -52 77 -93 132 -164
217 -338 264 -537 21 -90 33 -293 18 -308 -4 -4 -22 -2 -41 4 l-34 12 -7 79
c-9 105 -18 130 -51 130 -15 0 -34 -7 -42 -16 -11 -11 -25 -14 -42 -9 -14 3
-61 13 -103 22 -43 8 -78 20 -78 27 0 11 -113 180 -137 204 -7 7 -13 16 -13
20 0 4 -16 24 -36 44 -20 22 -37 51 -39 69 -2 17 -1 28 2 25 3 -3 12 -1 19 5
14 11 60 0 112 -27 19 -10 28 -10 31 -3 2 6 -1 14 -6 18 -18 11 -26 51 -11 52
59 5 83 11 86 19 2 6 8 8 13 4 12 -7 11 23 -1 66 -14 45 -20 210 -8 210 5 0
17 -8 27 -17z m-3293 -129 c13 -3 29 -22 39 -45 10 -21 21 -36 26 -34 4 3 21
-9 39 -26 17 -17 34 -29 37 -25 11 11 73 -62 79 -93 4 -17 13 -36 20 -42 8 -6
14 -16 14 -21 0 -5 9 -27 19 -48 l19 -40 -25 0 c-27 0 -39 10 -67 55 -19 30
-82 106 -150 180 -20 22 -39 51 -43 65 -3 14 -17 37 -31 53 -26 28 -20 33 24
21z m3659 -147 c34 -63 29 -60 -19 12 -50 74 -52 79 -29 58 11 -9 33 -41 48
-70z m-5192 -63 c61 -14 132 -27 157 -29 240 -15 568 -56 695 -85 40 -9 108
-18 195 -26 25 -2 79 -9 120 -14 41 -6 102 -13 135 -17 33 -3 75 -11 94 -19
18 -8 59 -14 90 -15 31 0 65 -4 76 -9 74 -34 -1026 96 -1355 160 -25 5 -103
18 -175 30 -71 11 -161 30 -200 40 l-70 20 63 -5 c34 -3 113 -16 175 -31z
m5247 -49 c0 -5 -5 -3 -10 5 -5 8 -10 20 -10 25 0 6 5 3 10 -5 5 -8 10 -19 10
-25z m15 -174 c23 -45 65 -220 65 -271 0 -51 -22 -134 -33 -124 -4 4 -7 2 -7
-4 0 -7 -3 -12 -7 -12 -5 0 -9 62 -10 138 -1 80 -8 167 -17 210 -9 40 -16 78
-16 83 0 17 9 9 25 -20z m-5337 -20 c7 -9 20 -29 29 -46 39 -72 116 -168 220
-274 62 -63 111 -117 108 -119 -2 -2 -19 -2 -38 2 -56 10 -186 158 -310 349
-72 110 -75 117 -49 110 15 -3 33 -13 40 -22z m1710 12 c-10 -2 -26 -2 -35 0
-10 3 -2 5 17 5 19 0 27 -2 18 -5z m1992 -28 c259 -33 254 -33 420 -50 80 -9
242 -32 360 -51 118 -19 274 -44 345 -55 72 -11 140 -23 152 -25 27 -5 45 -35
33 -54 -7 -11 -31 -10 -147 4 -76 10 -167 24 -203 31 -36 7 -135 23 -220 35
-143 19 -334 49 -455 71 -27 5 -104 16 -170 24 -66 9 -189 26 -273 38 l-153
23 21 22 c17 18 28 21 58 17 20 -3 125 -17 232 -30z m770 -64 l45 -8 -40 -1
c-22 0 -53 4 -70 8 -27 7 -28 8 -5 8 14 0 45 -3 70 -7z m270 -25 c47 -8 72
-14 55 -14 -16 0 -68 5 -115 12 -47 8 -71 14 -55 14 17 0 68 -5 115 -12z m737
-271 c2 -66 0 -147 -5 -180 -7 -46 -8 -27 -5 80 4 105 1 159 -11 215 -20 92
-19 110 1 50 10 -27 17 -93 20 -165z m-3447 186 c0 -13 -64 -141 -70 -141 -4
0 -11 21 -15 48 -3 26 -9 58 -12 71 -5 18 -2 23 8 19 8 -3 22 -2 32 1 21 8 57
9 57 2z m-2476 -77 c3 -8 2 -12 -4 -9 -6 3 -10 10 -10 16 0 14 7 11 14 -7z
m54 -91 c16 -27 45 -74 66 -105 20 -32 34 -58 31 -58 -3 0 -24 30 -48 68 -69
108 -89 142 -84 142 3 0 18 -21 35 -47z m5804 -101 c-8 -48 -8 -68 0 -73 7 -5
1 -54 -21 -160 -29 -140 -36 -162 -86 -249 -30 -52 -56 -102 -58 -110 -2 -8
-2 -12 0 -7 10 16 20 5 32 -34 16 -51 13 -324 -4 -396 -20 -85 -63 -160 -172
-299 -93 -119 -248 -271 -317 -311 -85 -50 -95 -42 -64 48 36 108 29 322 -16
432 -6 15 -15 27 -19 27 -5 0 -5 6 0 13 4 6 6 20 5 29 -5 28 23 70 86 134 273
273 503 581 569 762 13 37 30 76 38 89 13 20 13 22 0 17 -12 -5 -15 3 -15 39
0 25 5 49 11 53 6 3 8 17 5 30 -4 14 -2 24 4 24 5 0 10 12 11 28 l0 27 12 -23
c8 -18 8 -41 -1 -90z m-4422 -23 c113 -10 309 -28 435 -40 234 -20 360 -36
315 -38 -25 -1 -268 19 -475 39 -108 11 -352 34 -585 55 l-145 14 125 -5 c69
-3 217 -14 330 -25z m-320 -9 c45 -7 39 -8 -30 -3 -47 3 -105 9 -130 14 -58
11 78 1 160 -11z m4491 -1 c19 -36 5 -127 -32 -213 l-34 -78 -7 43 c-3 24 -9
90 -13 146 -8 102 -8 103 16 112 38 15 57 13 70 -10z m-5430 -56 c13 -16 12
-17 -3 -4 -10 7 -18 15 -18 17 0 8 8 3 21 -13z m154 -203 c10 -11 16 -20 13
-20 -3 0 -13 9 -23 20 -10 11 -16 20 -13 20 3 0 13 -9 23 -20z m847 -46 c38
-31 66 -59 64 -61 -3 -3 -30 13 -62 36 -31 23 -53 41 -48 41 5 0 -2 9 -16 20
-14 11 -21 20 -16 20 5 0 40 -25 78 -56z m146 -80 c130 -107 196 -166 208
-186 4 -7 -15 7 -42 32 -27 25 -93 81 -148 125 -140 114 -152 124 -142 125 4
0 60 -43 124 -96z m177 -238 c-33 -27 -96 -65 -80 -49 15 16 97 73 104 73 3 0
-7 -11 -24 -24z m-760 -74 c-3 -3 -11 0 -18 7 -9 10 -8 11 6 5 10 -3 15 -9 12
-12z m665 14 c0 -2 -8 -10 -17 -17 -16 -13 -17 -12 -4 4 13 16 21 21 21 13z
m-610 -61 c19 -19 32 -35 29 -35 -3 0 -20 16 -39 35 -19 19 -32 35 -29 35 3 0
20 -16 39 -35z m569 22 c-32 -22 -90 -57 -96 -57 -4 0 15 15 42 34 28 18 52
32 54 30 2 -2 2 -5 0 -7z m-119 -71 c0 -2 -8 -10 -17 -17 -16 -13 -17 -12 -4
4 13 16 21 21 21 13z m-379 -23 c13 -16 12 -17 -3 -4 -10 7 -18 15 -18 17 0 8
8 3 21 -13z m279 -47 c0 -2 -18 -15 -40 -30 -22 -14 -40 -24 -40 -22 0 5 71
56 77 56 2 0 3 -2 3 -4z m-159 -63 c13 -16 12 -17 -3 -4 -10 7 -18 15 -18 17
0 8 8 3 21 -13z m54 -13 c-10 -11 -22 -20 -27 -20 -10 0 -78 -45 -118 -79 -14
-11 -30 -25 -36 -29 -16 -14 -61 -36 -49 -25 31 30 232 173 243 173 3 0 -3 -9
-13 -20z m2574 -117 c43 -45 45 -48 23 -51 -29 -4 -48 11 -73 60 -27 52 -7 49
50 -9z m-2859 -79 c-8 -8 -23 -20 -34 -25 -13 -7 -9 -1 9 15 34 29 43 33 25
10z m-72 -54 c-7 -11 -19 -22 -28 -25 -8 -4 -4 5 9 19 29 31 36 33 19 6z
m4992 -35 c-17 -25 -33 -45 -36 -45 -3 0 9 20 26 45 17 25 33 45 36 45 3 0 -9
-20 -26 -45z m-3651 -12 l21 -38 -25 30 c-23 28 -31 45 -21 45 2 0 14 -17 25
-37z m-1409 -7 c0 -2 -8 -10 -17 -17 -16 -13 -17 -12 -4 4 13 16 21 21 21 13z
m1415 -157 c47 -92 97 -214 130 -313 50 -150 124 -426 139 -521 6 -37 4 -36
-20 20 -34 81 -51 132 -59 180 -10 62 -15 75 -30 75 -16 0 -45 43 -60 90 -23
69 -70 160 -83 160 -17 0 -38 51 -62 153 -21 86 -62 200 -81 223 -6 7 -7 19
-3 25 4 8 3 9 -4 5 -7 -4 -12 -3 -12 3 0 11 48 51 61 51 5 0 43 -68 84 -151z
m2139 116 c288 -37 306 -43 251 -79 -26 -17 -33 -16 -201 19 -96 20 -217 42
-270 50 -52 8 -103 19 -112 25 -32 18 131 11 332 -15z m1466 1 c0 -2 -8 -10
-17 -17 -16 -13 -17 -12 -4 4 13 16 21 21 21 13z m-5110 -55 c-23 -15 -100
-78 -229 -186 -33 -27 -60 -54 -60 -59 -1 -5 6 -3 14 4 8 6 20 8 26 4 7 -4 9
-3 6 3 -7 11 40 60 48 51 4 -3 -6 -15 -21 -27 -15 -11 -23 -21 -19 -21 4 0 2
-7 -5 -15 -7 -8 -17 -12 -24 -8 -6 3 -8 3 -4 -2 8 -8 -19 -42 -126 -155 -64
-68 -239 -282 -288 -354 -110 -157 -191 -290 -255 -416 -40 -80 -73 -153 -73
-162 0 -10 -5 -18 -11 -18 -7 0 -9 -10 -5 -27 4 -18 3 -23 -2 -14 -7 10 -11 6
-15 -15 -12 -64 -30 -129 -36 -134 -3 -3 -6 -9 -6 -15 -1 -5 -13 -48 -28 -96
-35 -111 -34 -137 2 -34 44 125 139 362 173 429 92 185 269 435 408 577 85 86
108 105 97 75 -4 -11 -1 -13 11 -9 14 6 15 4 5 -8 -6 -8 -12 -32 -14 -54 -2
-22 -11 -52 -22 -67 -10 -16 -14 -28 -8 -28 6 0 11 5 11 10 0 6 4 10 9 10 17
0 18 -34 2 -53 -13 -16 -13 -19 -1 -27 11 -7 12 -12 3 -21 -9 -9 -9 -14 0 -24
14 -15 40 -8 30 8 -3 6 -1 7 6 3 6 -4 19 -2 27 5 8 6 17 10 19 7 6 -6 -27 -92
-37 -96 -5 -2 -8 -8 -8 -13 0 -10 -28 -45 -85 -103 -22 -23 -82 -98 -133 -166
-52 -69 -119 -159 -150 -200 -138 -184 -186 -257 -256 -392 -110 -209 -168
-384 -189 -568 -3 -19 -3 10 0 65 2 55 13 169 24 254 20 158 21 214 1 94 -10
-63 -28 -247 -51 -518 -8 -90 -9 -65 -6 145 4 275 16 390 65 624 79 370 178
618 373 926 33 52 133 186 157 210 3 3 23 28 44 55 61 78 118 135 129 128 6
-3 7 -1 3 5 -9 15 101 125 249 250 61 51 123 104 138 118 16 14 39 30 52 36
14 6 22 15 19 19 -3 5 3 6 12 2 13 -5 15 -3 9 7 -6 9 -4 11 5 5 11 -7 8 -12
-10 -24z m1645 -165 c35 -74 78 -174 95 -222 37 -106 95 -337 104 -414 5 -54
5 -53 -24 35 -16 50 -45 147 -64 216 -45 162 -126 387 -177 484 -21 42 -39 79
-39 82 0 21 51 -67 105 -181z m3395 134 c-23 -27 -44 -50 -47 -50 -6 0 12 23
56 73 42 46 35 30 -9 -23z m-1672 -112 c49 -75 66 -119 32 -87 -8 8 -28 22
-43 32 -29 18 -66 86 -67 120 0 35 27 13 78 -65z m53 0 c8 -15 8 -18 0 -14 -6
4 -16 16 -22 28 -8 15 -8 18 0 14 6 -4 16 -16 22 -28z m87 -111 c4 1 9 -7 9
-18 3 -32 -15 -22 -57 36 -51 69 -51 84 0 25 22 -25 43 -44 48 -43z m-2748
-137 c0 -5 -4 -10 -10 -10 -5 0 -10 5 -10 10 0 6 5 10 10 10 6 0 10 -4 10 -10z
m596 -79 c5 -5 19 -12 32 -16 16 -5 22 -2 22 10 0 27 46 -14 60 -55 7 -19 18
-39 25 -45 6 -5 17 -23 24 -40 12 -28 12 -29 -6 -13 -10 8 -36 25 -58 37 -53
27 -125 93 -125 114 0 19 11 22 26 8z m494 -192 c11 -41 32 -117 46 -169 51
-191 65 -582 26 -755 -27 -122 -54 -213 -59 -198 -2 7 6 70 18 140 47 259 24
705 -51 1008 -22 92 -6 71 20 -26z m-391 -5 c3 -4 -2 -4 -11 -1 -9 3 -33 9
-52 13 -20 3 -38 10 -41 14 -6 10 94 -16 104 -26z m1487 -122 c-26 -26 -63
-69 -81 -97 -19 -27 -53 -70 -76 -95 -45 -49 -131 -162 -173 -229 -23 -36 -25
-46 -17 -77 5 -19 7 -50 4 -68 -3 -19 -1 -49 5 -67 6 -19 13 -78 16 -131 4
-53 9 -104 12 -113 6 -14 8 -14 31 0 14 9 30 14 38 12 7 -3 18 0 25 6 36 34
-10 -36 -126 -189 -70 -92 -159 -217 -197 -277 -64 -99 -72 -108 -81 -88 -7
17 -4 35 12 72 11 28 16 46 9 41 -31 -26 -12 309 23 418 12 36 23 79 26 95 2
17 6 35 8 42 7 16 -5 24 -19 13 -9 -8 -14 -6 -19 5 -20 53 212 392 416 607 74
77 197 182 206 174 3 -4 -16 -28 -42 -54z m-1464 -132 c10 0 27 -9 38 -20 11
-11 20 -17 20 -12 0 4 5 0 10 -8 6 -10 10 -11 10 -2 0 21 19 13 34 -15 l15
-28 1 28 c0 16 4 26 10 22 6 -3 10 -15 10 -25 0 -10 5 -20 12 -22 14 -5 45
-91 64 -183 16 -74 14 -199 -4 -217 -6 -6 -33 -1 -81 16 -40 14 -80 26 -89 26
-9 1 -30 7 -47 15 -29 14 -29 14 20 8 42 -5 48 -4 39 8 -7 8 -15 30 -19 49 -4
19 -29 107 -56 194 -27 88 -49 170 -49 183 l0 24 22 -21 c12 -11 30 -20 40
-20z m2705 -36 c40 -42 70 -81 67 -86 -5 -7 -2 -8 5 -3 8 4 24 -4 42 -21 32
-31 41 -58 9 -29 -11 10 -20 14 -20 9 0 -5 9 -15 20 -21 10 -7 24 -23 31 -35
8 -16 -1 -11 -29 16 -23 22 -39 43 -36 48 3 5 1 7 -4 6 -13 -4 -203 173 -196
183 13 22 44 4 111 -67z m-4202 -98 c33 -8 125 -27 205 -41 80 -14 179 -32
220 -40 178 -36 529 -104 570 -110 80 -12 232 -44 238 -50 16 -16 -212 9 -515
56 -188 29 -197 19 -13 -15 151 -28 232 -47 354 -80 41 -12 63 -13 70 -6 5 5
17 10 26 9 10 0 9 -3 -5 -9 -19 -8 -19 -9 2 -9 12 -1 25 -5 28 -11 3 -5 19
-10 34 -10 15 0 63 -11 107 -25 l79 -25 -65 4 c-154 12 -530 77 -724 127 -65
16 -170 39 -235 49 -105 18 -300 56 -500 97 l-74 16 51 49 c35 33 58 48 69 44
10 -3 45 -12 78 -20z m4497 -188 c75 -73 159 -162 189 -197 30 -35 59 -69 65
-75 46 -48 181 -250 222 -331 79 -158 89 -184 121 -305 36 -138 44 -213 33
-300 l-8 -65 -8 75 c-18 175 -83 405 -156 551 -55 109 -169 288 -233 364 -28
33 -94 105 -146 160 -53 54 -86 91 -73 80 12 -10 25 -15 29 -11 12 12 -136
142 -150 131 -4 -3 -5 -2 -2 2 3 3 -5 17 -17 30 -12 13 -17 23 -11 23 6 0 71
-60 145 -132z m-3285 -84 c-3 -3 -12 -4 -19 -1 -8 3 -5 6 6 6 11 1 17 -2 13
-5z m260 -110 c-3 -3 -12 -4 -19 -1 -8 3 -5 6 6 6 11 1 17 -2 13 -5z m3316
-329 c85 -123 172 -310 206 -446 36 -139 52 -306 30 -297 -8 4 -22 9 -31 13
-13 5 -18 2 -18 -9 0 -9 -4 -16 -10 -16 -5 0 -10 9 -10 19 0 27 -53 64 -68 49
-7 -7 -12 -20 -12 -30 0 -21 -11 -23 -29 -5 -11 10 -13 4 -8 -35 2 -27 3 -48
0 -48 -20 0 -58 60 -107 174 -31 70 -33 90 -6 56 l20 -25 0 47 c0 38 4 50 21
59 19 9 21 18 17 62 -7 71 -43 143 -102 200 -45 43 -47 48 -23 42 34 -9 35 3
7 106 -21 79 -25 119 -12 119 4 0 7 19 7 43 -2 83 28 64 128 -78z m-3177 97
c6 -4 16 -17 23 -30 8 -16 18 -21 31 -17 10 3 25 -1 33 -9 8 -8 17 -12 21 -9
3 4 6 -2 6 -13 1 -16 3 -15 16 6 15 24 15 24 9 -15 -15 -97 -37 -177 -46 -164
-4 7 -11 10 -15 6 -4 -4 -13 -2 -19 3 -9 8 -16 2 -25 -22 -6 -18 -25 -60 -41
-93 -16 -33 -29 -67 -29 -76 0 -9 -7 -22 -15 -29 -8 -7 -15 -19 -15 -26 0 -10
-13 -14 -39 -14 -61 0 -103 11 -92 24 19 25 58 103 65 131 4 16 12 32 17 36 9
5 47 149 69 262 11 54 21 66 46 49z m-2113 -198 c64 -10 117 -20 117 -24 0 -3
17 -5 38 -3 30 2 32 1 12 -6 -22 -7 -19 -8 23 -15 27 -4 51 -5 55 -2 3 3 -8 6
-24 7 -16 0 -24 3 -18 5 6 3 110 -11 230 -31 120 -20 271 -43 334 -51 145 -18
229 -29 355 -49 55 -9 127 -20 160 -25 33 -5 83 -14 110 -20 28 -6 79 -16 115
-21 63 -10 180 -47 180 -57 0 -7 -173 15 -493 63 -54 8 -122 15 -151 15 -89 0
-659 82 -901 129 -82 16 -188 32 -235 35 l-85 5 95 -13 c52 -8 129 -21 170
-31 143 -31 628 -104 870 -129 80 -9 179 -20 220 -26 41 -6 134 -17 207 -25
138 -15 245 -41 358 -86 58 -23 -413 19 -558 50 -23 5 -69 12 -102 16 -33 3
-91 12 -130 20 -73 14 -362 58 -665 101 -96 13 -233 36 -305 50 -71 15 -142
29 -157 32 -15 2 -25 8 -22 13 3 5 -1 6 -9 3 -20 -7 -19 43 1 74 13 20 21 23
51 18 20 -3 89 -13 154 -22z m4262 -83 c-24 -10 -122 -16 -180 -11 -26 3 -11
6 45 10 135 10 158 10 135 1z m514 5 c-8 -7 -415 -13 -439 -5 -14 4 80 7 209
8 129 1 232 -1 230 -3z m-760 -15 c16 -10 -31 -15 -309 -31 -228 -13 -383 -30
-395 -43 -7 -7 -7 -8 0 -4 6 3 143 11 305 18 386 16 382 16 387 2 3 -9 -31
-12 -136 -12 -78 0 -145 -2 -149 -5 -5 -3 -100 -8 -213 -11 -112 -4 -208 -9
-213 -13 -15 -9 2 27 27 58 22 27 24 28 142 30 66 1 192 5 280 9 239 11 259
11 274 2z m1096 -51 c8 -7 15 -21 15 -31 0 -18 -12 -19 -264 -19 -148 0 -266
4 -268 9 -1 5 -32 12 -68 16 -36 4 -67 9 -69 11 -2 2 29 5 70 5 41 1 108 4
149 8 156 13 420 13 435 1z m-5379 -155 c5 -32 8 -36 14 -20 6 17 9 14 19 -20
6 -22 11 -49 11 -60 0 -51 63 -270 104 -363 44 -98 64 -172 30 -109 -8 15 -19
27 -25 27 -6 0 -8 4 -5 9 3 5 -10 37 -29 71 -45 80 -92 187 -99 225 -12 68
-18 85 -27 80 -5 -4 -6 0 -3 8 3 8 -2 52 -10 97 -19 97 -19 93 -6 85 6 -3 11
4 11 17 1 24 3 18 15 -47z m2003 -298 c-159 -142 -200 -177 -219 -187 -12 -7
-34 -22 -49 -35 -108 -94 -197 -165 -208 -165 -28 0 -6 -25 27 -32 19 -4 4 -5
-35 -2 -130 10 -190 16 -290 30 -91 13 -149 20 -415 54 -100 13 -143 21 -138
25 4 4 213 -21 548 -64 251 -33 294 -36 286 -22 -5 8 15 29 83 83 11 10 21 15
21 13 0 -3 18 14 41 39 22 24 61 54 85 66 24 13 42 25 40 28 -3 2 40 48 93
103 86 87 103 99 132 99 l34 0 -36 -33z m243 -74 c30 -34 30 -60 4 -113 -46
-92 -84 -139 -106 -133 -16 4 -20 14 -20 52 0 26 7 56 16 69 8 12 13 22 10 22
-2 0 9 27 25 60 30 63 46 72 71 43z m3744 -75 c24 -174 -13 -433 -97 -668 -22
-63 -47 -141 -55 -174 -17 -66 -54 -146 -78 -165 -9 -8 -16 -11 -16 -8 0 3
-38 -33 -85 -79 -80 -79 -115 -101 -115 -71 0 14 12 38 95 187 32 58 68 123
80 145 13 22 35 61 49 87 88 153 166 434 188 675 6 67 14 123 19 123 4 0 11
-24 15 -52z m-6439 -100 c-3 -7 -5 -2 -5 12 0 14 2 19 5 13 2 -7 2 -19 0 -25z
m858 -29 c24 -5 -2 -5 -65 -2 -58 4 -113 6 -122 5 -10 0 -18 4 -18 9 0 11 132
3 205 -12z m-101 -40 c11 -1 3 -5 -19 -9 -38 -7 -37 -7 19 -9 32 0 102 -8 155
-16 216 -33 673 -95 771 -105 179 -18 399 -55 414 -70 7 -7 0 -10 -19 -10 -40
0 -364 29 -395 35 -14 3 -108 14 -210 25 -102 11 -246 27 -320 35 -74 9 -195
22 -267 30 -117 12 -137 17 -168 40 -19 15 -32 31 -29 36 3 5 0 9 -5 9 -6 0
-11 5 -11 11 0 8 11 9 31 5 17 -3 41 -7 53 -7z m4849 4 c-34 -2 -93 -2 -130 0
-37 2 -9 3 62 3 72 0 102 -1 68 -3z m-230 -10 c-18 -2 -48 -2 -65 0 -18 2 -4
4 32 4 36 0 50 -2 33 -4z m-1056 -40 c-20 -2 -52 -2 -70 0 -17 2 0 4 38 4 39
0 53 -2 32 -4z m-4300 -25 c-3 -8 -6 -5 -6 6 -1 11 2 17 5 13 3 -3 4 -12 1
-19z m10 -60 c-3 -7 -5 -2 -5 12 0 14 2 19 5 13 2 -7 2 -19 0 -25z m10 -40
c-3 -8 -6 -5 -6 6 -1 11 2 17 5 13 3 -3 4 -12 1 -19z m691 -3 c-3 -3 -9 2 -12
12 -6 14 -5 15 5 6 7 -7 10 -15 7 -18z m61 -90 c0 -5 -11 8 -24 30 -14 22 -25
45 -25 50 0 6 11 -8 25 -30 13 -22 24 -44 24 -50z m-742 43 c-3 -7 -5 -2 -5
12 0 14 2 19 5 13 2 -7 2 -19 0 -25z m784 -95 c13 -16 12 -17 -3 -4 -10 7 -18
15 -18 17 0 8 8 3 21 -13z m309 -391 l32 -47 -36 40 c-20 22 -46 54 -58 70
l-22 30 26 -23 c14 -13 40 -44 58 -70z m3139 -28 c17 -14 51 -52 76 -85 l45
-59 -33 0 c-24 0 -41 9 -63 33 -56 59 -92 137 -65 137 5 0 23 -12 40 -26z
m2050 -140 c2 -10 8 -22 14 -26 12 -8 16 -159 6 -218 -18 -105 -113 -306 -176
-372 -20 -21 -28 -24 -37 -15 -15 15 -29 50 -17 42 9 -5 13 12 27 118 3 26 10
50 15 53 5 3 9 18 9 34 0 16 4 31 10 35 5 3 8 40 8 83 -1 55 3 86 15 109 9 18
17 44 17 58 0 15 12 43 28 63 47 64 73 75 81 36z m-4891 -148 c51 -49 62 -66
43 -66 -5 0 -13 9 -16 20 -4 11 -11 17 -17 14 -6 -4 -8 -2 -5 3 7 11 -20 28
-36 24 -5 -1 -6 3 -2 9 3 5 2 10 -3 10 -12 0 -52 39 -52 52 0 13 20 -2 88 -66z
m4245 -33 c6 -4 3 -11 -7 -18 -20 -15 -179 -10 -331 10 -55 7 -174 13 -265 14
-90 1 -167 5 -170 8 -7 8 760 -6 773 -14z m-799 -349 c132 -136 243 -250 244
-255 22 -58 -232 177 -415 383 -183 206 -85 133 171 -128z m2494 -489 c-3 -3
-9 2 -12 12 -6 14 -5 15 5 6 7 -7 10 -15 7 -18z m-5993 -185 c3 -6 -1 -7 -9
-4 -18 7 -21 14 -7 14 6 0 13 -4 16 -10z"/>
<path d="M5677 9202 c-13 -14 -17 -38 -17 -93 0 -51 3 -69 10 -59 7 12 11 8
16 -18 9 -45 83 -110 124 -108 23 1 31 6 35 27 3 14 1 37 -4 51 -5 14 -7 29
-4 32 4 3 1 6 -5 6 -7 0 -12 4 -12 9 0 11 -65 119 -86 142 -9 10 -23 15 -32
12 -10 -4 -13 -2 -8 5 11 18 1 14 -17 -6z"/>
<path d="M3530 8596 c0 -2 8 -10 18 -17 15 -13 16 -12 3 4 -13 16 -21 21 -21
13z"/>
<path d="M2480 7845 c35 -13 66 -22 68 -20 5 4 -105 45 -121 44 -7 0 17 -11
53 -24z"/>
<path d="M2429 7834 c67 -31 263 -99 311 -108 19 -4 -35 17 -120 47 -85 30
-172 61 -194 70 -60 26 -58 18 3 -9z"/>
<path d="M2335 7842 c16 -16 215 -98 296 -122 41 -12 108 -32 149 -45 230 -72
1036 -255 1071 -243 6 2 -88 23 -208 47 -505 101 -966 224 -1185 317 -121 52
-133 56 -123 46z"/>
<path d="M2835 7700 c11 -5 27 -9 35 -9 9 0 8 4 -5 9 -11 5 -27 9 -35 9 -9 0
-8 -4 5 -9z"/>
<path d="M2938 7703 c7 -3 16 -2 19 1 4 3 -2 6 -13 5 -11 0 -14 -3 -6 -6z"/>
<path d="M2891 7686 c7 -7 355 -93 511 -126 79 -17 196 -44 261 -60 110 -28
156 -36 146 -26 -4 5 -279 69 -449 106 -58 12 -184 42 -280 66 -169 43 -198
49 -189 40z"/>
<path d="M2508 7043 c7 -3 16 -2 19 1 4 3 -2 6 -13 5 -11 0 -14 -3 -6 -6z"/>
<path d="M6457 6659 c7 -7 15 -10 18 -7 3 3 -2 9 -12 12 -14 6 -15 5 -6 -5z"/>
<path d="M6491 6656 c2 -2 27 -6 54 -10 34 -4 43 -3 30 3 -19 9 -93 15 -84 7z"/>
<path d="M6658 6633 c7 -3 16 -2 19 1 4 3 -2 6 -13 5 -11 0 -14 -3 -6 -6z"/>
<path d="M6815 6606 c72 -13 191 -34 265 -46 74 -12 202 -35 283 -51 174 -34
234 -37 97 -5 -204 49 -594 116 -710 122 -53 3 -40 -1 65 -20z"/>
<path d="M2359 4573 c-13 -16 -12 -17 4 -4 9 7 17 15 17 17 0 8 -8 3 -21 -13z"/>
<path d="M1566 3064 c-4 -20 -5 -38 -3 -40 3 -3 8 11 11 32 4 20 5 38 3 40 -3
3 -8 -11 -11 -32z"/>
<path d="M1552 2990 c0 -14 2 -19 5 -12 2 6 2 18 0 25 -3 6 -5 1 -5 -13z"/>
<path d="M2831 3736 c5 -5 282 -56 300 -55 26 1 -89 28 -185 44 -99 16 -122
18 -115 11z"/>
<path d="M3163 3673 c9 -2 23 -2 30 0 6 3 -1 5 -18 5 -16 0 -22 -2 -12 -5z"/>
<path d="M3218 3663 c6 -2 18 -2 25 0 6 3 1 5 -13 5 -14 0 -19 -2 -12 -5z"/>
<path d="M3778 3603 c7 -3 16 -2 19 1 4 3 -2 6 -13 5 -11 0 -14 -3 -6 -6z"/>
<path d="M2021 3006 c3 -3 45 -10 94 -16 50 -6 104 -13 120 -15 24 -4 26 -3 9
4 -30 13 -234 38 -223 27z"/>
<path d="M2288 2963 c6 -2 18 -2 25 0 6 3 1 5 -13 5 -14 0 -19 -2 -12 -5z"/>
<path d="M2473 2953 c9 -2 23 -2 30 0 6 3 -1 5 -18 5 -16 0 -22 -2 -12 -5z"/>
<path d="M2438 2933 c6 -2 18 -2 25 0 6 3 1 5 -13 5 -14 0 -19 -2 -12 -5z"/>
<path d="M2518 2923 c7 -3 16 -2 19 1 4 3 -2 6 -13 5 -11 0 -14 -3 -6 -6z"/>
<path d="M2653 2903 c9 -2 23 -2 30 0 6 3 -1 5 -18 5 -16 0 -22 -2 -12 -5z"/>
<path d="M2725 2890 c17 -4 41 -8 55 -8 23 -1 23 0 5 8 -11 5 -36 8 -55 8
l-35 0 30 -8z"/>
<path d="M2818 2873 c7 -3 16 -2 19 1 4 3 -2 6 -13 5 -11 0 -14 -3 -6 -6z"/>
<path d="M5713 2843 c9 -2 25 -2 35 0 9 3 1 5 -18 5 -19 0 -27 -2 -17 -5z"/>
<path d="M2361 9570 c24 -31 38 -28 60 12 9 16 5 18 -36 18 l-46 0 22 -30z"/>
<path d="M1883 7785 c0 -38 2 -53 4 -32 2 20 2 52 0 70 -2 17 -4 1 -4 -38z"/>
<path d="M1911 7404 c0 -11 3 -14 6 -6 3 7 2 16 -1 19 -3 4 -6 -2 -5 -13z"/>
<path d="M1922 7340 c0 -14 2 -19 5 -12 2 6 2 18 0 25 -3 6 -5 1 -5 -13z"/>
</g>
</svg>
