<?xml version="1.0" standalone="no"?>
<!DOCTYPE svg PUBLIC "-//W3C//DTD SVG 20010904//EN"
 "http://www.w3.org/TR/2001/REC-SVG-20010904/DTD/svg10.dtd">
<svg version="1.0" xmlns="http://www.w3.org/2000/svg"
 width="960.000000pt" height="960.000000pt" viewBox="0 0 960.000000 960.000000"
 preserveAspectRatio="xMidYMid meet">

<g transform="translate(0.000000,960.000000) scale(0.100000,-0.100000)"
fill="#000000" stroke="none">
<path d="M6953 6883 c-63 -3 -81 -7 -77 -17 3 -7 -9 -44 -27 -82 -17 -38 -42
-93 -55 -123 l-24 -54 42 6 c24 4 123 12 221 18 139 10 201 10 280 0 438 -51
828 -232 1113 -516 263 -262 431 -554 514 -891 99 -403 91 -730 -27 -1099 -37
-115 -126 -312 -189 -418 -111 -185 -332 -425 -502 -546 -94 -66 -272 -171
-292 -171 -5 0 -14 8 -19 18 -14 27 -129 135 -209 197 -51 40 -78 55 -90 50
-15 -6 -14 -8 6 -16 38 -15 210 -183 205 -200 -2 -5 1 -9 6 -9 5 0 11 -7 14
-14 4 -10 1 -13 -8 -10 -8 3 -17 14 -20 25 -4 11 -11 17 -16 13 -16 -10 -40
17 -34 37 4 12 1 19 -6 19 -6 0 -17 7 -24 16 -9 14 -16 14 -33 5 -17 -9 -22
-9 -20 0 2 6 -3 14 -9 16 -8 3 -13 -4 -13 -16 0 -12 5 -21 10 -21 6 0 10 -7
10 -15 0 -8 5 -15 11 -15 14 0 9 -123 -5 -132 -7 -5 -6 -8 4 -8 9 -1 6 -6 -10
-16 l-25 -15 25 6 c14 4 37 9 52 12 15 3 26 8 23 12 -2 4 1 8 8 9 7 0 22 4 35
7 13 5 22 3 22 -3 0 -22 -332 -113 -487 -133 -38 -4 -129 -8 -204 -9 -130 0
-138 -1 -175 -26 -165 -112 -243 -168 -239 -172 12 -12 246 -31 385 -31 182 0
336 17 510 55 188 41 171 47 254 -77 105 -156 174 -313 177 -403 1 -54 37 76
50 182 13 109 1 234 -32 328 -37 105 -40 96 52 143 113 59 266 163 379 259
235 198 399 410 530 687 114 239 168 417 206 675 40 278 32 506 -30 790 -85
393 -312 801 -602 1080 -130 125 -227 199 -387 294 -323 193 -590 273 -986
296 -86 5 -163 9 -171 8 -8 -1 -52 -4 -97 -5z m927 -3911 c0 -4 -9 -8 -20 -9
-16 -1 -17 1 -7 12 12 13 27 11 27 -3z m75 -137 c9 -22 12 -35 7 -30 -6 6 -18
28 -27 50 -9 22 -12 36 -6 30 5 -5 17 -28 26 -50z"/>
<path d="M2326 6862 c-67 -8 -61 -1 -111 -132 -21 -52 -42 -101 -47 -108 -19
-22 0 -25 84 -11 129 21 449 18 578 -5 304 -54 618 -191 820 -356 119 -98 270
-248 338 -335 204 -265 338 -585 388 -925 13 -91 15 -156 11 -310 -8 -267 -35
-417 -109 -615 -133 -358 -360 -669 -646 -884 -68 -52 -324 -202 -342 -201 -3
0 -16 19 -30 41 -27 45 -145 161 -211 209 -32 23 -45 27 -55 19 -8 -6 -11 -16
-8 -21 3 -5 0 -8 -8 -6 -20 4 -81 -49 -72 -64 5 -8 2 -9 -10 -5 -12 5 -28 -3
-49 -23 -18 -16 -35 -30 -38 -30 -3 0 -23 -13 -43 -29 -30 -24 -33 -30 -19
-35 9 -4 19 -2 23 4 4 7 13 10 21 9 8 -1 27 3 42 9 34 15 37 15 37 2 0 -5 -7
-10 -16 -10 -20 0 -60 -49 -56 -69 3 -10 -1 -9 -14 4 -16 16 -16 18 -1 27 9 5
17 14 17 20 0 6 -9 3 -20 -7 -16 -15 -22 -16 -35 -5 -9 7 -18 11 -21 8 -3 -3
18 -24 47 -47 44 -35 54 -39 68 -29 14 11 14 11 3 -4 -12 -15 -9 -20 25 -42
34 -22 39 -23 51 -8 11 14 12 14 12 -1 0 -14 7 -16 38 -11 20 3 46 7 57 9 23
3 43 10 98 32 20 9 40 13 44 10 8 -9 -74 -43 -149 -61 -195 -48 -268 -58 -441
-63 l-179 -6 -109 -73 c-135 -91 -169 -116 -169 -124 0 -16 228 -35 415 -35
213 1 333 17 524 70 54 15 91 20 101 15 18 -9 137 -183 167 -245 30 -59 71
-188 80 -248 l7 -52 22 90 c38 151 27 349 -27 489 -10 28 -19 54 -19 58 0 4
33 24 73 44 246 124 510 337 683 552 215 267 351 545 430 880 30 127 41 202
54 377 22 296 -41 667 -163 950 -146 340 -353 619 -637 857 -187 156 -471 296
-785 387 -153 44 -562 80 -719 63z m735 -3669 c106 -95 103 -93 90 -106 -10
-9 -11 -9 -6 5 4 11 0 18 -14 23 -12 3 -21 10 -21 15 0 5 -9 14 -19 20 -15 7
-24 6 -36 -7 -15 -15 -16 -15 -13 3 2 14 -2 18 -17 16 -11 -2 -25 -9 -30 -16
-14 -19 -41 -5 -39 21 1 14 -3 20 -12 16 -17 -6 -18 -23 -1 -23 6 0 4 -5 -6
-11 -10 -6 -21 -8 -24 -5 -4 3 -1 6 6 6 7 0 9 5 6 11 -8 12 35 54 55 54 8 0
14 6 13 13 -5 22 14 12 68 -35z m-127 -57 c24 9 19 -3 -13 -38 -20 -21 -34
-29 -46 -24 -14 5 -15 9 -5 21 19 23 -1 18 -27 -7 -38 -35 -35 -15 3 25 29 30
40 35 54 27 10 -6 26 -7 34 -4z m-134 -61 c0 -2 -10 -9 -22 -15 -22 -11 -22
-10 -4 4 21 17 26 19 26 11z m380 -5 c0 -5 -5 -10 -11 -10 -5 0 -7 5 -4 10 3
6 8 10 11 10 2 0 4 -4 4 -10z m90 -138 c6 -15 15 -35 21 -45 6 -11 8 -21 5
-24 -3 -3 -15 17 -27 43 -27 58 -37 67 -56 48 -8 -8 -19 -14 -25 -14 -6 0 0 9
13 19 29 23 55 13 69 -27z m-399 15 c-6 -8 -7 -18 -3 -22 4 -5 1 -5 -6 -1 -10
6 -10 11 -1 22 6 8 14 14 16 14 3 0 0 -6 -6 -13z m39 -27 c0 -5 -2 -10 -4 -10
-3 0 -8 5 -11 10 -3 6 -1 10 4 10 6 0 11 -4 11 -10z m467 -262 c-3 -7 -5 -2
-5 12 0 14 2 19 5 13 2 -7 2 -19 0 -25z m31 -163 c-1 -31 -16 35 -16 70 0 25
2 24 9 -10 4 -22 8 -49 7 -60z"/>
<path d="M3046 3176 c3 -9 11 -16 16 -16 13 0 5 23 -10 28 -7 2 -10 -2 -6 -12z"/>
<path d="M6408 6760 c-533 -208 -974 -614 -1195 -1100 -161 -355 -210 -600
-200 -998 5 -228 15 -295 76 -520 64 -239 164 -462 287 -643 119 -175 343
-403 521 -531 103 -74 253 -160 374 -213 l97 -43 23 42 c12 22 45 69 72 103
43 56 47 64 30 69 -74 27 -260 112 -318 146 -166 98 -356 260 -467 397 -144
179 -293 438 -351 611 -35 105 -76 292 -94 435 -46 369 44 820 231 1148 187
328 445 583 764 757 l84 45 44 99 c24 54 55 114 69 132 14 19 37 50 51 69 33
44 25 43 -98 -5z"/>
<path d="M1820 6738 c-241 -103 -431 -208 -600 -331 -71 -52 -280 -261 -351
-352 -132 -167 -250 -367 -314 -533 -38 -99 -97 -315 -121 -444 -22 -114 -30
-451 -14 -587 32 -287 121 -575 246 -802 214 -388 530 -696 922 -898 156 -80
145 -79 188 -19 20 28 56 73 80 98 l44 47 -112 45 c-114 45 -274 138 -403 234
-81 61 -256 238 -334 339 -372 480 -499 1104 -340 1680 146 531 481 965 915
1187 81 42 105 59 122 89 23 40 29 64 12 54 -14 -9 -12 1 6 37 9 16 11 27 5
24 -14 -9 -14 -2 2 37 8 18 12 37 10 42 -2 6 6 17 18 25 60 43 63 47 19 28z"/>
<path d="M7966 6344 c11 -26 14 -64 12 -135 -2 -55 1 -99 5 -99 5 0 7 51 5
114 -2 74 1 112 7 108 6 -3 -1 7 -14 21 -14 15 -26 27 -27 27 -2 0 4 -16 12
-36z"/>
<path d="M3353 6270 c0 -30 2 -43 4 -27 2 15 2 39 0 55 -2 15 -4 2 -4 -28z"/>
<path d="M3353 6175 c0 -22 2 -30 4 -17 2 12 2 30 0 40 -3 9 -5 -1 -4 -23z"/>
<path d="M8058 6131 c-13 -107 -95 -253 -215 -381 -30 -32 -39 -47 -30 -53 8
-6 7 -7 -4 -4 -24 8 -58 -28 -55 -57 2 -14 -1 -23 -6 -20 -5 3 -7 13 -4 21 4
9 -5 5 -23 -9 -15 -13 -27 -25 -25 -27 2 -2 11 2 20 9 13 12 17 11 25 -1 6 -9
3 -18 -9 -28 -16 -12 -15 -13 6 -8 19 4 22 1 22 -24 0 -16 4 -29 9 -29 8 0 31
-52 31 -71 0 -5 -9 -9 -20 -9 -15 0 -20 -7 -20 -25 0 -14 5 -25 10 -25 6 0 10
-7 10 -15 0 -8 5 -15 11 -15 8 0 8 -5 -1 -15 -7 -8 -10 -22 -6 -30 3 -8 0 -15
-6 -15 -7 0 -8 12 -4 33 l6 32 -25 -30 c-14 -16 -24 -39 -24 -50 2 -39 -1 -47
-17 -41 -8 3 -13 2 -10 -3 4 -5 -18 -29 -46 -53 -29 -23 -58 -47 -64 -53 -6
-5 -26 -21 -45 -35 -18 -14 -60 -47 -94 -75 -33 -27 -93 -76 -133 -109 -40
-32 -75 -64 -79 -70 -6 -9 23 9 37 24 3 3 25 20 49 38 47 34 72 42 51 17 -7
-8 -16 -13 -20 -10 -4 3 -10 -2 -14 -10 -7 -20 -6 -19 33 9 21 16 28 26 19 29
-17 7 18 38 36 31 7 -3 24 8 37 23 38 41 87 83 99 83 5 0 9 6 7 13 -1 6 5 11
13 9 8 -2 12 -1 8 3 -10 10 54 66 69 61 7 -3 12 0 10 7 -1 7 4 11 11 9 8 -1
11 2 7 8 -3 5 -1 10 6 10 17 0 187 174 227 232 18 25 30 52 29 60 -2 7 -2 9 1
5 13 -24 62 97 88 218 22 101 31 275 14 275 -10 0 -10 3 -1 14 8 9 11 46 9
103 l-3 88 -7 -64z m-1 -113 c-3 -8 -6 -5 -6 6 -1 11 2 17 5 13 3 -3 4 -12 1
-19z m-237 -683 c-7 -9 -15 -13 -18 -10 -3 2 1 11 8 20 7 9 15 13 18 10 3 -2
-1 -11 -8 -20z m-360 -340 c-7 -9 -15 -13 -19 -10 -3 3 1 10 9 15 21 14 24 12
10 -5z"/>
<path d="M3427 6125 c-8 -77 -61 -180 -152 -295 -41 -52 -75 -99 -75 -103 0
-4 -13 -22 -30 -40 -16 -18 -30 -35 -30 -39 0 -13 18 -9 23 5 2 7 8 8 13 3 5
-5 4 -11 -3 -13 -7 -3 -13 -11 -13 -18 0 -7 -6 -16 -12 -19 -7 -3 -3 -3 9 0
18 4 22 2 17 -10 -3 -9 -11 -16 -16 -16 -6 0 -5 -6 2 -15 10 -12 10 -18 0 -30
-10 -12 -10 -15 0 -15 9 0 11 -18 5 -76 -5 -59 -4 -79 7 -86 9 -6 4 -8 -16 -6
-19 2 -30 -2 -33 -12 -4 -13 -3 -13 5 -1 9 12 12 12 26 -1 17 -17 11 -29 -10
-21 -9 3 -14 -2 -14 -15 0 -14 -26 -42 -76 -83 -42 -34 -86 -71 -98 -83 -31
-30 -117 -100 -127 -104 -12 -5 -11 -22 1 -22 6 0 24 12 41 28 17 15 35 26 40
25 5 -2 9 2 9 7 0 6 9 19 20 30 18 18 25 18 21 -3 -1 -5 3 -6 8 -2 6 3 8 12 5
19 -3 9 3 17 17 21 21 7 77 55 63 55 -3 0 13 15 36 33 90 70 199 187 233 251
11 22 22 43 22 46 0 3 10 23 22 45 34 66 83 306 54 265 -6 -9 -11 -10 -11 -3
0 6 6 18 14 25 10 11 14 52 14 171 1 86 0 157 -2 157 -2 0 -6 -25 -9 -55z m-6
-128 c-10 -9 -11 -8 -5 6 3 10 9 15 12 12 3 -3 0 -11 -7 -18z m-14 -209 c-3
-8 -6 -5 -6 6 -1 11 2 17 5 13 3 -3 4 -12 1 -19z m-7 -104 c0 -8 -19 -13 -24
-6 -3 5 1 9 9 9 8 0 15 -2 15 -3z m-23 -46 c-3 -8 -6 -5 -6 6 -1 11 2 17 5 13
3 -3 4 -12 1 -19z"/>
<path d="M1806 6009 c-77 -166 -81 -181 -81 -309 l1 -116 47 -96 c36 -74 64
-115 124 -179 71 -75 302 -259 326 -259 5 0 42 28 81 63 39 34 84 72 99 84
l29 22 -38 38 c-30 30 -38 46 -40 78 -1 22 3 46 8 53 8 9 4 12 -13 13 l-24 1
25 8 c21 7 16 8 -25 11 -84 4 100 17 260 18 153 1 152 1 228 68 l37 33 -361 0
c-317 0 -360 -2 -355 -15 6 -17 -31 -85 -46 -85 -7 0 -7 4 0 13 6 7 9 49 7
101 l-3 90 -49 35 c-26 19 -91 78 -143 130 l-95 96 105 6 c58 4 385 7 727 8
l621 1 32 39 c27 35 28 40 11 38 -11 0 -18 -4 -15 -8 2 -4 -6 -9 -19 -13 -31
-8 -276 -5 -312 4 l-30 8 33 1 c17 0 32 6 32 11 0 6 -38 9 -97 8 -60 -1 -77
-3 -45 -5 69 -5 66 -28 -4 -27 -182 0 -344 8 -289 13 88 9 41 20 -80 20 -55 0
-170 2 -255 4 -85 3 -188 5 -228 6 -40 0 -71 5 -68 9 3 5 23 21 45 37 32 21
57 29 118 35 68 6 58 7 -78 9 l-156 1 -47 -101z m577 -26 c-7 -2 -19 -2 -25 0
-7 3 -2 5 12 5 14 0 19 -2 13 -5z m80 0 c-13 -2 -33 -2 -45 0 -13 2 -3 4 22 4
25 0 35 -2 23 -4z m-30 -30 c-7 -2 -19 -2 -25 0 -7 3 -2 5 12 5 14 0 19 -2 13
-5z m445 0 c-16 -2 -40 -2 -55 0 -16 2 -3 4 27 4 30 0 43 -2 28 -4z m-130
-430 c-38 -2 -98 -2 -135 0 -38 2 -7 3 67 3 74 0 105 -1 68 -3z m-290 -40
c-16 -2 -40 -2 -55 0 -16 2 -3 4 27 4 30 0 43 -2 28 -4z"/>
<path d="M6435 6033 c-20 -43 -43 -100 -52 -126 -9 -27 -19 -44 -22 -38 -8 12
-10 -23 -12 -169 -1 -85 3 -116 21 -162 46 -123 155 -254 324 -388 164 -130
137 -127 254 -32 83 67 100 86 98 106 -2 17 1 23 11 19 10 -4 11 -9 2 -19 -22
-26 6 -14 41 19 20 17 32 29 27 25 -5 -3 -16 -4 -25 -1 -10 4 -13 2 -8 -5 12
-19 -17 -26 -31 -7 -10 15 -10 21 0 28 9 6 8 7 -3 4 -8 -2 -14 -10 -13 -16 2
-6 -1 -11 -6 -11 -12 0 -43 81 -39 101 2 8 8 18 13 22 6 5 1 7 -12 4 -16 -3
-20 -1 -16 10 3 8 12 12 20 9 8 -3 11 -1 8 4 -4 6 -12 10 -18 9 -30 -4 -39 4
-12 11 17 4 109 8 206 9 l176 1 44 41 c24 23 35 35 24 28 -18 -13 -19 -12 -7
3 8 9 19 15 27 12 7 -3 16 -1 20 5 4 8 -101 11 -354 11 -199 0 -361 -4 -361
-8 0 -4 5 -13 11 -19 9 -9 8 -16 -5 -28 -9 -9 -16 -22 -17 -28 -2 -25 -28 100
-29 138 -1 37 -6 44 -71 95 -80 63 -225 207 -218 215 3 3 334 8 735 11 445 4
734 11 741 16 17 13 44 68 33 68 -4 0 -13 -7 -20 -15 -10 -13 -47 -15 -224
-13 -154 1 -188 3 -126 8 47 3 81 7 75 8 -5 1 -3 7 5 12 10 6 -160 10 -490 12
-278 1 -512 2 -520 4 -8 1 -34 2 -58 3 l-42 1 40 36 c40 36 43 37 148 44 102
7 98 7 -75 8 l-182 2 -36 -77z m700 -43 c53 -5 31 -7 -95 -7 -94 0 -154 3
-140 7 31 10 141 10 235 0z m203 -7 c-10 -2 -28 -2 -40 0 -13 2 -5 4 17 4 22
1 32 -1 23 -4z m106 -1 c2 -4 -12 -6 -32 -4 -56 5 -62 10 -15 11 23 1 44 -3
47 -7z m-251 -29 c-13 -2 -35 -2 -50 0 -16 2 -5 4 22 4 28 0 40 -2 28 -4z
m214 -450 c0 -8 -6 -9 -19 -2 -10 5 -18 11 -18 12 0 2 8 3 18 3 10 0 19 -6 19
-13z m-327 -23 c0 -12 -85 -12 -150 -1 -38 7 -30 9 53 10 59 1 97 -3 97 -9z
m73 3 c-7 -2 -19 -2 -25 0 -7 3 -2 5 12 5 14 0 19 -2 13 -5z"/>
<path d="M2648 5993 c7 -3 16 -2 19 1 4 3 -2 6 -13 5 -11 0 -14 -3 -6 -6z"/>
<path d="M3018 5983 c7 -3 16 -2 19 1 4 3 -2 6 -13 5 -11 0 -14 -3 -6 -6z"/>
<path d="M6361 5904 c0 -11 3 -14 6 -6 3 7 2 16 -1 19 -3 4 -6 -2 -5 -13z"/>
<path d="M3110 5625 c-11 -13 -10 -14 4 -9 9 3 16 10 16 15 0 13 -6 11 -20 -6z"/>
<path d="M7700 5270 c8 -5 20 -10 25 -10 6 0 3 5 -5 10 -8 5 -19 10 -25 10 -5
0 -3 -5 5 -10z"/>
<path d="M2420 5246 c0 -2 7 -7 16 -10 8 -3 12 -2 9 4 -6 10 -25 14 -25 6z"/>
<path d="M2731 4950 c-41 -33 -71 -60 -67 -60 22 0 76 33 105 64 19 20 41 36
49 36 7 0 10 5 7 10 -10 16 -17 13 -94 -50z"/>
<path d="M7894 4866 c23 -31 26 -38 11 -33 -15 6 -16 5 -5 -8 10 -12 10 -15
-3 -15 -21 0 -40 -61 -53 -175 -3 -22 -7 -55 -10 -73 -5 -33 -6 -33 -25 -16
-18 16 -19 16 -19 -9 0 -28 -15 -44 -25 -27 -4 6 -10 8 -15 5 -5 -3 -12 0 -16
6 -4 7 -3 9 3 6 17 -11 36 20 29 47 -4 18 -11 23 -27 19 -16 -5 -19 -11 -14
-30 5 -21 3 -23 -13 -14 -16 8 -18 18 -14 59 2 31 0 52 -7 56 -6 4 -11 2 -11
-5 0 -7 -2 -10 -5 -7 -3 3 2 21 10 41 19 45 20 66 3 49 -18 -18 -144 -16 -152
3 -3 8 0 15 7 15 7 1 -1 8 -17 17 -38 20 -232 36 -261 20 -11 -5 -65 -44 -119
-86 l-100 -76 252 -3 253 -2 92 -62 c51 -34 108 -74 128 -90 36 -28 55 -36 45
-20 -3 5 1 9 9 9 10 0 12 -4 5 -13 -8 -8 2 -20 36 -43 l47 -31 -554 -1 c-305
0 -576 -4 -604 -8 -27 -5 79 -6 238 -3 214 4 287 2 287 -6 0 -7 5 -12 11 -12
5 0 7 4 4 10 -9 15 633 18 667 3 31 -15 47 -51 27 -65 -12 -8 -737 -4 -889 5
-30 1 -120 4 -199 5 l-144 2 19 21 c18 20 18 20 -28 18 -26 -2 -45 -6 -42 -10
2 -4 13 -5 24 -2 11 3 20 0 20 -6 0 -6 -10 -11 -22 -12 -13 -1 -38 -2 -55 -4
-22 -2 -31 1 -26 9 3 6 2 7 -3 3 -5 -5 -9 -12 -9 -16 0 -24 -130 -144 -157
-146 -3 0 -10 -4 -15 -9 -5 -5 -3 -6 5 -2 20 12 14 -2 -32 -70 -60 -87 -85
-157 -87 -244 -2 -62 2 -78 32 -137 48 -95 153 -201 315 -319 77 -55 148 -107
160 -114 19 -12 30 -6 120 66 54 44 125 99 157 123 32 24 60 47 62 51 5 8
-125 100 -140 100 -6 0 -1 -7 9 -15 11 -8 15 -15 9 -15 -13 0 -27 19 -28 35 0
6 -8 9 -18 9 -9 -1 -14 2 -11 7 3 5 -9 17 -26 27 l-31 19 173 7 c95 4 200 6
234 5 57 -2 65 0 110 35 27 21 49 41 49 46 0 5 4 12 9 17 5 5 6 3 2 -4 -11
-20 9 -15 29 7 18 20 17 20 -162 20 -99 0 -282 -3 -406 -7 l-227 -6 0 -37 c0
-20 -7 -45 -16 -56 -15 -18 -15 -18 -9 9 3 17 -2 45 -16 77 -12 27 -19 59 -16
70 4 16 -8 30 -53 65 -62 48 -180 173 -180 191 0 6 11 20 24 33 19 17 33 21
77 20 30 -1 349 -2 711 -1 l656 2 39 63 c56 90 69 121 89 220 11 59 20 84 26
75 6 -8 7 2 4 27 -3 22 -5 45 -6 50 0 6 -5 3 -10 -5 -5 -8 -10 -10 -10 -5 0 6
4 16 9 23 13 21 41 -59 41 -117 0 -26 -5 -73 -10 -102 -6 -30 -13 -67 -16 -84
-14 -78 -109 -227 -224 -349 -34 -36 -45 -53 -30 -45 14 8 27 17 30 21 3 3 5
-46 4 -110 -1 -114 0 -117 26 -142 l27 -25 -31 0 c-26 0 -31 -4 -31 -25 0 -20
6 -26 28 -28 27 -3 25 -6 -53 -85 -45 -45 -86 -88 -91 -97 -9 -12 -9 -11 -5 5
4 14 -4 9 -26 -16 -18 -19 -39 -44 -46 -55 -7 -10 -10 -13 -6 -5 5 9 3 12 -5
7 -6 -4 -8 -12 -5 -18 4 -6 -2 -8 -17 -4 -13 3 -18 3 -11 0 20 -9 14 -24 -15
-35 -19 -7 -23 -13 -15 -21 8 -8 18 -4 39 14 15 14 57 52 93 83 185 164 305
316 356 452 26 69 54 189 53 226 0 21 -1 21 -9 2 -7 -15 -9 -16 -9 -4 -1 9 6
22 14 29 18 15 21 184 5 355 -9 97 -15 120 -50 190 -39 80 -108 164 -195 237
l-40 33 29 -39z m191 -215 c3 -5 2 -12 -3 -15 -5 -3 -9 1 -9 9 0 17 3 19 12 6z
m-245 -380 c0 -5 10 -11 22 -14 12 -4 20 -9 17 -11 -3 -3 -178 -7 -389 -9
-210 -2 -374 0 -364 3 20 7 323 16 474 13 62 -1 77 1 55 8 -26 7 -24 8 12 4
23 -3 45 -1 48 5 8 12 125 13 125 1z m53 2 c-7 -2 -21 -2 -30 0 -10 3 -4 5 12
5 17 0 24 -2 18 -5z m-845 -517 c8 -9 -148 -6 -198 4 -33 6 -12 8 74 5 65 -2
121 -6 124 -9z m972 -16 c-6 -11 -13 -20 -16 -20 -2 0 0 9 6 20 6 11 13 20 16
20 2 0 0 -9 -6 -20z m-72 -98 c15 12 16 11 3 -4 -14 -19 -32 -15 -30 5 0 8 2
8 6 -1 4 -10 8 -10 21 0z m-783 -130 c-3 -4 -10 0 -14 7 -5 8 -14 10 -22 6 -8
-5 -11 -5 -7 0 4 4 2 15 -5 24 -6 8 3 5 21 -8 18 -13 30 -26 27 -29z"/>
<path d="M3279 4868 c4 -13 13 -23 19 -23 15 0 22 -9 27 -35 3 -18 2 -20 -10
-10 -8 6 -11 18 -9 25 8 20 -34 7 -45 -14 -5 -9 -12 -51 -16 -93 -4 -43 -11
-78 -15 -78 -5 0 -6 -18 -3 -40 4 -26 2 -40 -6 -40 -6 0 -11 -11 -11 -24 0
-13 -7 -27 -16 -30 -15 -6 -15 -8 2 -27 10 -11 24 -17 31 -14 8 2 12 1 9 -4
-6 -10 57 -70 77 -73 7 -1 -17 -4 -53 -8 l-65 -7 78 -1 c43 -1 77 -6 77 -12 0
-5 7 -10 16 -10 10 0 14 -6 11 -14 -3 -8 -1 -16 5 -18 6 -2 8 -10 4 -16 -10
-16 -779 -10 -906 6 -47 6 -123 14 -170 18 -47 3 -89 9 -95 12 -23 14 188 30
330 25 86 -3 165 -1 185 4 25 8 -54 11 -280 12 -173 0 -328 -3 -345 -8 l-30
-9 35 -1 c26 -1 31 -4 20 -11 -12 -8 -12 -10 5 -10 11 0 27 -5 35 -10 11 -8 8
-9 -13 -4 -15 3 -41 1 -58 -6 -16 -7 -33 -10 -36 -6 -4 4 3 9 16 13 16 4 19 8
10 14 -17 10 -79 -34 -154 -110 l-59 -61 723 0 c678 0 725 1 737 18 8 9 32 52
54 94 50 96 74 193 67 273 -4 42 -3 50 2 27 12 -48 22 -52 16 -7 -3 28 -1 35
6 28 6 -6 13 -49 16 -95 4 -68 1 -99 -20 -174 -36 -132 -66 -185 -186 -328
-42 -50 -64 -82 -49 -72 16 10 29 13 32 7 4 -5 3 -12 -2 -15 -22 -13 -48 -230
-31 -257 4 -7 3 -19 -3 -26 -5 -7 -7 -20 -4 -29 5 -14 10 -13 39 8 54 41 62
43 40 12 -25 -35 -144 -157 -223 -229 -30 -28 -54 -53 -52 -57 1 -5 -4 -8 -11
-8 -8 0 -32 -17 -54 -37 -34 -31 -38 -40 -27 -50 16 -16 27 -1 17 24 -6 16 -5
16 11 4 13 -11 19 -12 29 -2 9 10 8 11 -5 6 -26 -10 -22 12 5 26 12 6 34 23
49 36 16 15 31 22 39 18 8 -5 10 -4 5 3 -4 8 0 12 11 12 10 0 55 37 99 83 221
226 299 382 326 649 10 97 9 146 -4 288 -15 161 -18 176 -51 243 -41 81 -113
171 -129 161 -6 -4 -8 -3 -5 3 3 5 -12 27 -33 47 -33 31 -39 34 -31 14z m175
-204 c3 -8 2 -12 -4 -9 -6 3 -10 10 -10 16 0 14 7 11 14 -7z m-191 -391 c-7
-2 -21 -2 -30 0 -10 3 -4 5 12 5 17 0 24 -2 18 -5z m45 -5 c-6 -18 -28 -21
-28 -4 0 9 7 16 16 16 9 0 14 -5 12 -12z m-52 -21 c4 -4 -80 -6 -187 -5 -127
1 -168 4 -119 7 101 8 298 6 306 -2z"/>
<path d="M2635 4871 c-3 -5 -2 -12 3 -15 5 -3 9 1 9 9 0 17 -3 19 -12 6z"/>
<path d="M7279 4843 c-13 -16 -12 -17 4 -4 9 7 17 15 17 17 0 8 -8 3 -21 -13z"/>
<path d="M3045 4798 c18 -46 18 -45 0 -51 -20 -8 -158 22 -167 36 -5 8 -50 14
-125 18 -112 5 -119 4 -148 -18 -16 -13 -65 -49 -107 -80 -43 -31 -78 -61 -78
-66 0 -5 78 -8 188 -7 103 1 228 2 277 1 l90 -1 99 -65 c98 -64 116 -69 122
-30 1 8 -5 15 -13 15 -13 0 -13 -3 -3 -16 11 -12 11 -15 -1 -12 -8 2 -19 9
-24 16 -6 7 -15 12 -20 10 -6 -1 -21 5 -35 15 -13 9 -19 17 -13 17 6 0 16 -7
23 -15 14 -17 30 -11 30 12 0 9 -6 13 -14 10 -13 -5 -76 27 -76 39 0 3 15 -4
34 -16 34 -20 35 -20 33 -2 -1 13 -6 18 -17 14 -13 -5 -13 -4 0 13 12 15 12
17 1 10 -9 -5 -19 -2 -28 10 -12 17 -13 18 -13 1 0 -9 -4 -15 -9 -12 -5 4 -11
3 -14 -1 -5 -11 3 15 21 62 16 43 12 78 -13 110 -13 18 -13 16 0 -17z"/>
<path d="M2580 4800 c-8 -5 -12 -12 -9 -15 4 -3 12 1 19 10 14 17 11 19 -10 5z"/>
<path d="M3162 4647 c-18 -21 -12 -100 6 -88 9 5 12 24 10 56 -3 41 -5 46 -16
32z"/>
<path d="M7811 4593 c-1 -18 4 -33 9 -33 12 0 12 17 0 45 -7 17 -9 15 -9 -12z"/>
<path d="M6879 4523 c-13 -16 -12 -17 4 -4 9 7 17 15 17 17 0 8 -8 3 -21 -13z"/>
<path d="M6799 4483 c-13 -16 -12 -17 4 -4 16 13 21 21 13 21 -2 0 -10 -8 -17
-17z"/>
<path d="M2827 4373 c18 -2 50 -2 70 0 21 2 7 4 -32 4 -38 0 -55 -2 -38 -4z"/>
<path d="M6584 4278 l-29 -33 33 29 c30 28 37 36 29 36 -2 0 -16 -15 -33 -32z"/>
<path d="M1939 4273 c-13 -17 -13 -17 6 -3 11 8 22 16 24 17 2 2 0 3 -6 3 -6
0 -17 -8 -24 -17z"/>
<path d="M1869 4193 c-13 -16 -12 -17 4 -4 9 7 17 15 17 17 0 8 -8 3 -21 -13z"/>
<path d="M1813 4087 c-28 -41 -53 -87 -57 -103 -6 -22 -9 -25 -18 -13 -8 11
-9 10 -4 -5 3 -10 2 -35 -4 -56 -21 -76 -15 -116 26 -197 51 -102 179 -229
367 -364 l138 -100 89 72 c50 39 87 75 84 80 -3 5 1 6 9 4 7 -3 22 5 32 17 11
13 13 17 5 11 -8 -7 -19 -13 -24 -13 -13 1 25 24 39 25 19 0 67 44 60 55 -3 5
-11 10 -16 10 -6 0 -7 -4 -4 -10 3 -5 2 -10 -4 -10 -15 0 -24 20 -9 20 7 1 2
7 -11 14 -23 13 -38 46 -21 46 12 0 31 -26 23 -33 -3 -4 -1 -7 5 -7 6 0 13 4
16 9 7 11 -90 85 -102 77 -4 -2 -14 0 -22 6 -12 8 -11 9 5 4 14 -5 12 0 -10
18 -16 14 -37 26 -45 27 -54 6 116 17 271 18 l187 1 71 56 c39 30 71 57 71 60
0 2 -186 2 -412 0 -405 -5 -413 -5 -411 -25 2 -18 -23 -91 -31 -91 -2 0 -4 16
-4 35 0 20 -6 65 -13 101 -12 61 -16 67 -66 106 -54 41 -141 135 -161 174 -8
15 -8 24 0 32 7 7 9 14 6 17 -3 4 -28 -27 -55 -68z m707 -612 c0 -7 -30 -13
-34 -7 -3 4 4 9 15 9 10 1 19 0 19 -2z"/>
<path d="M1809 4123 c-13 -16 -12 -17 4 -4 9 7 17 15 17 17 0 8 -8 3 -21 -13z"/>
<path d="M3167 3879 c-16 -16 -24 -29 -19 -29 11 0 57 48 51 54 -2 2 -17 -9
-32 -25z"/>
<path d="M2443 3883 c9 -2 23 -2 30 0 6 3 -1 5 -18 5 -16 0 -22 -2 -12 -5z"/>
<path d="M2743 3883 c59 -2 154 -2 210 0 56 1 8 3 -108 3 -115 0 -161 -2 -102
-3z"/>
<path d="M7558 3883 c23 -2 59 -2 80 0 20 2 1 4 -43 4 -44 0 -61 -2 -37 -4z"/>
<path d="M3225 3577 c-25 -29 -26 -40 -2 -18 15 14 27 26 27 28 0 7 -16 1 -25
-10z"/>
<path d="M2537 3533 c-7 -6 21 -32 36 -33 4 0 3 9 -3 20 -11 21 -22 25 -33 13z"/>
<path d="M3041 3320 c-13 -11 -19 -20 -14 -20 6 0 18 9 28 20 23 25 17 25 -14
0z"/>
<path d="M7516 3242 c-3 -4 4 -9 15 -9 23 -2 25 3 4 10 -8 4 -16 3 -19 -1z"/>
<path d="M2896 3214 c-3 -8 -11 -12 -17 -8 -8 5 -9 3 -4 -6 6 -10 4 -12 -9 -7
-11 5 -15 3 -10 -5 5 -7 2 -9 -8 -6 -8 4 -15 0 -15 -7 0 -11 5 -11 26 0 50 28
76 55 52 55 -5 0 -12 -7 -15 -16z"/>
<path d="M7495 3163 c-38 -29 -96 -71 -127 -92 l-57 -39 25 -16 c13 -9 29 -14
34 -11 6 4 22 -3 36 -14 15 -12 22 -21 17 -21 -6 0 -16 7 -23 15 -7 8 -17 15
-22 15 -16 0 6 -22 43 -44 21 -13 29 -14 23 -5 -12 20 -14 39 -3 39 5 0 9 11
9 25 0 14 5 25 12 25 6 0 8 3 5 6 -8 8 -38 -16 -33 -25 3 -4 1 -13 -3 -20 -6
-9 -11 -10 -15 -2 -4 6 -1 11 6 11 9 0 9 3 -2 10 -8 5 -10 10 -3 10 12 0 12
24 0 36 -4 4 10 22 31 39 30 26 41 31 57 23 19 -9 19 -8 2 6 -18 14 -18 15 5
27 24 12 63 48 57 53 -2 2 -35 -21 -74 -51z m-75 -108 c0 -2 -6 -5 -13 -8 -8
-3 -14 1 -14 8 0 7 6 11 14 8 7 -3 13 -6 13 -8z"/>
<path d="M7446 3185 c-11 -8 -15 -15 -9 -15 6 0 16 7 23 15 16 19 11 19 -14 0z"/>
<path d="M7680 3165 c0 -18 19 -40 26 -32 4 4 0 15 -9 24 -9 10 -17 13 -17 8z"/>
<path d="M7530 3109 c0 -11 5 -17 10 -14 6 3 10 13 10 21 0 8 -4 14 -10 14 -5
0 -10 -9 -10 -21z"/>
<path d="M7770 3072 c0 -12 19 -26 26 -19 2 2 -2 10 -11 17 -9 8 -15 8 -15 2z"/>
<path d="M6358 2267 c-53 -67 -62 -111 -29 -141 30 -27 49 -9 71 64 39 130 23
159 -42 77z"/>
<path d="M1734 2270 c-46 -50 -59 -80 -50 -116 5 -19 13 -24 40 -24 37 0 46
12 46 61 0 16 5 38 12 48 8 13 9 28 2 47 l-9 29 -41 -45z"/>
</g>
</svg>
